<mxfile host="app.diagrams.net" agent="Mozilla/5.0 (Windows NT 10.0; Win64; x64; rv:133.0) Gecko/20100101 Firefox/133.0" version="26.0.4">
  <diagram name="Page-1" id="x9pvSpp0PAn3SXcFR6wH">
    <mxGraphModel dx="3514" dy="1584" grid="0" gridSize="10" guides="1" tooltips="1" connect="1" arrows="1" fold="1" page="0" pageScale="1" pageWidth="850" pageHeight="1100" math="0" shadow="0">
      <root>
        <mxCell id="0" />
        <mxCell id="1" parent="0" />
        <mxCell id="64A-an-FrHLoS8Hmhy-h-107" style="edgeStyle=none;curved=1;rounded=0;orthogonalLoop=1;jettySize=auto;html=1;exitX=0.5;exitY=1;exitDx=0;exitDy=0;entryX=0.5;entryY=0;entryDx=0;entryDy=0;fontSize=12;startSize=8;endSize=8;" edge="1" parent="1" source="64A-an-FrHLoS8Hmhy-h-77" target="64A-an-FrHLoS8Hmhy-h-78">
          <mxGeometry relative="1" as="geometry" />
        </mxCell>
        <mxCell id="64A-an-FrHLoS8Hmhy-h-77" value="App" style="rounded=0;whiteSpace=wrap;html=1;" vertex="1" parent="1">
          <mxGeometry x="-61" y="-374" width="120" height="60" as="geometry" />
        </mxCell>
        <mxCell id="64A-an-FrHLoS8Hmhy-h-108" style="edgeStyle=none;curved=1;rounded=0;orthogonalLoop=1;jettySize=auto;html=1;exitX=0.5;exitY=1;exitDx=0;exitDy=0;fontSize=12;startSize=8;endSize=8;" edge="1" parent="1" source="64A-an-FrHLoS8Hmhy-h-78" target="64A-an-FrHLoS8Hmhy-h-79">
          <mxGeometry relative="1" as="geometry" />
        </mxCell>
        <mxCell id="64A-an-FrHLoS8Hmhy-h-78" value="&lt;div&gt;BrowserRouter&lt;/div&gt;react-router" style="rounded=0;whiteSpace=wrap;html=1;" vertex="1" parent="1">
          <mxGeometry x="-61" y="-281" width="120" height="60" as="geometry" />
        </mxCell>
        <mxCell id="64A-an-FrHLoS8Hmhy-h-109" style="edgeStyle=none;curved=1;rounded=0;orthogonalLoop=1;jettySize=auto;html=1;exitX=0.5;exitY=1;exitDx=0;exitDy=0;fontSize=12;startSize=8;endSize=8;" edge="1" parent="1" source="64A-an-FrHLoS8Hmhy-h-79" target="64A-an-FrHLoS8Hmhy-h-85">
          <mxGeometry relative="1" as="geometry" />
        </mxCell>
        <mxCell id="64A-an-FrHLoS8Hmhy-h-79" value="&lt;div&gt;Routes&lt;/div&gt;react-router" style="rounded=0;whiteSpace=wrap;html=1;" vertex="1" parent="1">
          <mxGeometry x="-61" y="-186" width="120" height="60" as="geometry" />
        </mxCell>
        <mxCell id="64A-an-FrHLoS8Hmhy-h-161" style="edgeStyle=none;curved=1;rounded=0;orthogonalLoop=1;jettySize=auto;html=1;exitX=0.25;exitY=1;exitDx=0;exitDy=0;entryX=0.5;entryY=0;entryDx=0;entryDy=0;fontSize=12;startSize=8;endSize=8;" edge="1" parent="1" source="64A-an-FrHLoS8Hmhy-h-80" target="64A-an-FrHLoS8Hmhy-h-160">
          <mxGeometry relative="1" as="geometry" />
        </mxCell>
        <mxCell id="64A-an-FrHLoS8Hmhy-h-162" style="edgeStyle=none;curved=1;rounded=0;orthogonalLoop=1;jettySize=auto;html=1;exitX=0.75;exitY=1;exitDx=0;exitDy=0;entryX=0.5;entryY=0;entryDx=0;entryDy=0;fontSize=12;startSize=8;endSize=8;" edge="1" parent="1" source="64A-an-FrHLoS8Hmhy-h-80" target="64A-an-FrHLoS8Hmhy-h-159">
          <mxGeometry relative="1" as="geometry" />
        </mxCell>
        <mxCell id="64A-an-FrHLoS8Hmhy-h-80" value="Welcome" style="rounded=0;whiteSpace=wrap;html=1;" vertex="1" parent="1">
          <mxGeometry x="-743" y="70" width="120" height="60" as="geometry" />
        </mxCell>
        <mxCell id="64A-an-FrHLoS8Hmhy-h-112" style="edgeStyle=none;curved=1;rounded=0;orthogonalLoop=1;jettySize=auto;html=1;exitX=0.5;exitY=1;exitDx=0;exitDy=0;entryX=0.5;entryY=0;entryDx=0;entryDy=0;fontSize=12;startSize=8;endSize=8;" edge="1" parent="1" source="64A-an-FrHLoS8Hmhy-h-81" target="64A-an-FrHLoS8Hmhy-h-87">
          <mxGeometry relative="1" as="geometry" />
        </mxCell>
        <mxCell id="64A-an-FrHLoS8Hmhy-h-81" value="&lt;div&gt;Route&lt;/div&gt;&lt;div&gt;react-router&lt;/div&gt;*" style="rounded=0;whiteSpace=wrap;html=1;" vertex="1" parent="1">
          <mxGeometry x="-475" y="2" width="120" height="60" as="geometry" />
        </mxCell>
        <mxCell id="64A-an-FrHLoS8Hmhy-h-82" value="&lt;div&gt;Route&lt;/div&gt;&lt;div&gt;react-router&lt;/div&gt;/heatmap" style="rounded=0;whiteSpace=wrap;html=1;" vertex="1" parent="1">
          <mxGeometry x="-609" y="-18" width="120" height="60" as="geometry" />
        </mxCell>
        <mxCell id="64A-an-FrHLoS8Hmhy-h-83" value="&lt;div&gt;Route&lt;/div&gt;&lt;div&gt;react-router&lt;/div&gt;/resources" style="rounded=0;whiteSpace=wrap;html=1;" vertex="1" parent="1">
          <mxGeometry x="-341" y="16" width="120" height="60" as="geometry" />
        </mxCell>
        <mxCell id="64A-an-FrHLoS8Hmhy-h-113" style="edgeStyle=none;curved=1;rounded=0;orthogonalLoop=1;jettySize=auto;html=1;exitX=0.5;exitY=1;exitDx=0;exitDy=0;entryX=0.5;entryY=0;entryDx=0;entryDy=0;fontSize=12;startSize=8;endSize=8;" edge="1" parent="1" source="64A-an-FrHLoS8Hmhy-h-84" target="64A-an-FrHLoS8Hmhy-h-80">
          <mxGeometry relative="1" as="geometry" />
        </mxCell>
        <mxCell id="64A-an-FrHLoS8Hmhy-h-84" value="&lt;div&gt;Route&lt;/div&gt;&lt;div&gt;react-router&lt;/div&gt;&lt;div&gt;index&lt;br&gt;&lt;/div&gt;" style="rounded=0;whiteSpace=wrap;html=1;" vertex="1" parent="1">
          <mxGeometry x="-743" y="-38" width="120" height="60" as="geometry" />
        </mxCell>
        <mxCell id="64A-an-FrHLoS8Hmhy-h-97" style="edgeStyle=none;curved=1;rounded=0;orthogonalLoop=1;jettySize=auto;html=1;exitX=0;exitY=0.25;exitDx=0;exitDy=0;entryX=1;entryY=0;entryDx=0;entryDy=0;fontSize=12;startSize=8;endSize=8;" edge="1" parent="1" source="64A-an-FrHLoS8Hmhy-h-85" target="64A-an-FrHLoS8Hmhy-h-84">
          <mxGeometry relative="1" as="geometry" />
        </mxCell>
        <mxCell id="64A-an-FrHLoS8Hmhy-h-98" style="edgeStyle=none;curved=1;rounded=0;orthogonalLoop=1;jettySize=auto;html=1;exitX=0;exitY=0.5;exitDx=0;exitDy=0;entryX=0.75;entryY=0;entryDx=0;entryDy=0;fontSize=12;startSize=8;endSize=8;" edge="1" parent="1" source="64A-an-FrHLoS8Hmhy-h-85" target="64A-an-FrHLoS8Hmhy-h-82">
          <mxGeometry relative="1" as="geometry" />
        </mxCell>
        <mxCell id="64A-an-FrHLoS8Hmhy-h-99" style="edgeStyle=none;curved=1;rounded=0;orthogonalLoop=1;jettySize=auto;html=1;exitX=0;exitY=0.75;exitDx=0;exitDy=0;entryX=0.5;entryY=0;entryDx=0;entryDy=0;fontSize=12;startSize=8;endSize=8;" edge="1" parent="1" source="64A-an-FrHLoS8Hmhy-h-85" target="64A-an-FrHLoS8Hmhy-h-81">
          <mxGeometry relative="1" as="geometry" />
        </mxCell>
        <mxCell id="64A-an-FrHLoS8Hmhy-h-100" style="edgeStyle=none;curved=1;rounded=0;orthogonalLoop=1;jettySize=auto;html=1;exitX=0;exitY=1;exitDx=0;exitDy=0;entryX=0.5;entryY=0;entryDx=0;entryDy=0;fontSize=12;startSize=8;endSize=8;" edge="1" parent="1" source="64A-an-FrHLoS8Hmhy-h-85" target="64A-an-FrHLoS8Hmhy-h-83">
          <mxGeometry relative="1" as="geometry" />
        </mxCell>
        <mxCell id="64A-an-FrHLoS8Hmhy-h-101" style="edgeStyle=none;curved=1;rounded=0;orthogonalLoop=1;jettySize=auto;html=1;exitX=1;exitY=0.25;exitDx=0;exitDy=0;entryX=0;entryY=0;entryDx=0;entryDy=0;fontSize=12;startSize=8;endSize=8;" edge="1" parent="1" source="64A-an-FrHLoS8Hmhy-h-85" target="64A-an-FrHLoS8Hmhy-h-89">
          <mxGeometry relative="1" as="geometry" />
        </mxCell>
        <mxCell id="64A-an-FrHLoS8Hmhy-h-102" style="edgeStyle=none;curved=1;rounded=0;orthogonalLoop=1;jettySize=auto;html=1;exitX=1;exitY=0.5;exitDx=0;exitDy=0;entryX=0.25;entryY=0;entryDx=0;entryDy=0;fontSize=12;startSize=8;endSize=8;" edge="1" parent="1" source="64A-an-FrHLoS8Hmhy-h-85" target="64A-an-FrHLoS8Hmhy-h-93">
          <mxGeometry relative="1" as="geometry" />
        </mxCell>
        <mxCell id="64A-an-FrHLoS8Hmhy-h-103" style="edgeStyle=none;curved=1;rounded=0;orthogonalLoop=1;jettySize=auto;html=1;exitX=1;exitY=0.75;exitDx=0;exitDy=0;entryX=0.5;entryY=0;entryDx=0;entryDy=0;fontSize=12;startSize=8;endSize=8;" edge="1" parent="1" source="64A-an-FrHLoS8Hmhy-h-85" target="64A-an-FrHLoS8Hmhy-h-92">
          <mxGeometry relative="1" as="geometry" />
        </mxCell>
        <mxCell id="64A-an-FrHLoS8Hmhy-h-104" style="edgeStyle=none;curved=1;rounded=0;orthogonalLoop=1;jettySize=auto;html=1;exitX=1;exitY=1;exitDx=0;exitDy=0;entryX=0.5;entryY=0;entryDx=0;entryDy=0;fontSize=12;startSize=8;endSize=8;" edge="1" parent="1" source="64A-an-FrHLoS8Hmhy-h-85" target="64A-an-FrHLoS8Hmhy-h-91">
          <mxGeometry relative="1" as="geometry" />
        </mxCell>
        <mxCell id="64A-an-FrHLoS8Hmhy-h-110" style="edgeStyle=none;curved=1;rounded=0;orthogonalLoop=1;jettySize=auto;html=1;exitX=0.25;exitY=1;exitDx=0;exitDy=0;entryX=0.5;entryY=0;entryDx=0;entryDy=0;fontSize=12;startSize=8;endSize=8;" edge="1" parent="1" source="64A-an-FrHLoS8Hmhy-h-85" target="64A-an-FrHLoS8Hmhy-h-90">
          <mxGeometry relative="1" as="geometry" />
        </mxCell>
        <mxCell id="64A-an-FrHLoS8Hmhy-h-120" style="edgeStyle=none;curved=1;rounded=0;orthogonalLoop=1;jettySize=auto;html=1;exitX=0.5;exitY=1;exitDx=0;exitDy=0;entryX=0.5;entryY=0;entryDx=0;entryDy=0;fontSize=12;startSize=8;endSize=8;" edge="1" parent="1" source="64A-an-FrHLoS8Hmhy-h-85" target="64A-an-FrHLoS8Hmhy-h-119">
          <mxGeometry relative="1" as="geometry" />
        </mxCell>
        <mxCell id="64A-an-FrHLoS8Hmhy-h-85" value="&lt;div&gt;Route&lt;/div&gt;&lt;div&gt;react-router&lt;/div&gt;/" style="rounded=0;whiteSpace=wrap;html=1;" vertex="1" parent="1">
          <mxGeometry x="-61" y="-85" width="120" height="60" as="geometry" />
        </mxCell>
        <mxCell id="64A-an-FrHLoS8Hmhy-h-87" value="NotFound" style="rounded=0;whiteSpace=wrap;html=1;" vertex="1" parent="1">
          <mxGeometry x="-475" y="98" width="120" height="60" as="geometry" />
        </mxCell>
        <mxCell id="64A-an-FrHLoS8Hmhy-h-184" style="edgeStyle=none;curved=1;rounded=0;orthogonalLoop=1;jettySize=auto;html=1;exitX=0.5;exitY=1;exitDx=0;exitDy=0;entryX=0.5;entryY=0;entryDx=0;entryDy=0;fontSize=12;startSize=8;endSize=8;" edge="1" parent="1" source="64A-an-FrHLoS8Hmhy-h-89" target="64A-an-FrHLoS8Hmhy-h-165">
          <mxGeometry relative="1" as="geometry" />
        </mxCell>
        <mxCell id="64A-an-FrHLoS8Hmhy-h-187" style="edgeStyle=none;curved=1;rounded=0;orthogonalLoop=1;jettySize=auto;html=1;exitX=0.25;exitY=1;exitDx=0;exitDy=0;entryX=0.5;entryY=0;entryDx=0;entryDy=0;fontSize=12;startSize=8;endSize=8;" edge="1" parent="1" source="64A-an-FrHLoS8Hmhy-h-89" target="64A-an-FrHLoS8Hmhy-h-166">
          <mxGeometry relative="1" as="geometry" />
        </mxCell>
        <mxCell id="64A-an-FrHLoS8Hmhy-h-89" value="&lt;div&gt;Route&lt;/div&gt;&lt;div&gt;react-router&lt;/div&gt;/login" style="rounded=0;whiteSpace=wrap;html=1;" vertex="1" parent="1">
          <mxGeometry x="919" y="-14" width="120" height="60" as="geometry" />
        </mxCell>
        <mxCell id="64A-an-FrHLoS8Hmhy-h-90" value="&lt;div&gt;Route&lt;/div&gt;&lt;div&gt;react-router&lt;/div&gt;/dashboard" style="rounded=0;whiteSpace=wrap;html=1;" vertex="1" parent="1">
          <mxGeometry x="-212" y="64" width="120" height="60" as="geometry" />
        </mxCell>
        <mxCell id="64A-an-FrHLoS8Hmhy-h-91" value="&lt;div&gt;Route&lt;/div&gt;&lt;div&gt;react-router&lt;/div&gt;/contact" style="rounded=0;whiteSpace=wrap;html=1;" vertex="1" parent="1">
          <mxGeometry x="238" y="26" width="120" height="60" as="geometry" />
        </mxCell>
        <mxCell id="64A-an-FrHLoS8Hmhy-h-92" value="&lt;div&gt;Route&lt;/div&gt;&lt;div&gt;react-router&lt;/div&gt;/recipes" style="rounded=0;whiteSpace=wrap;html=1;" vertex="1" parent="1">
          <mxGeometry x="395" y="6" width="120" height="60" as="geometry" />
        </mxCell>
        <mxCell id="64A-an-FrHLoS8Hmhy-h-167" style="edgeStyle=none;curved=1;rounded=0;orthogonalLoop=1;jettySize=auto;html=1;exitX=0;exitY=1;exitDx=0;exitDy=0;entryX=0.5;entryY=0;entryDx=0;entryDy=0;fontSize=12;startSize=8;endSize=8;" edge="1" parent="1" source="64A-an-FrHLoS8Hmhy-h-93" target="64A-an-FrHLoS8Hmhy-h-163">
          <mxGeometry relative="1" as="geometry" />
        </mxCell>
        <mxCell id="64A-an-FrHLoS8Hmhy-h-185" style="edgeStyle=none;curved=1;rounded=0;orthogonalLoop=1;jettySize=auto;html=1;exitX=0.5;exitY=1;exitDx=0;exitDy=0;entryX=0.5;entryY=0;entryDx=0;entryDy=0;fontSize=12;startSize=8;endSize=8;" edge="1" parent="1" source="64A-an-FrHLoS8Hmhy-h-93" target="64A-an-FrHLoS8Hmhy-h-164">
          <mxGeometry relative="1" as="geometry" />
        </mxCell>
        <mxCell id="64A-an-FrHLoS8Hmhy-h-186" style="edgeStyle=none;curved=1;rounded=0;orthogonalLoop=1;jettySize=auto;html=1;exitX=1;exitY=1;exitDx=0;exitDy=0;entryX=0;entryY=0;entryDx=0;entryDy=0;fontSize=12;startSize=8;endSize=8;" edge="1" parent="1" source="64A-an-FrHLoS8Hmhy-h-93" target="64A-an-FrHLoS8Hmhy-h-166">
          <mxGeometry relative="1" as="geometry" />
        </mxCell>
        <mxCell id="64A-an-FrHLoS8Hmhy-h-188" style="edgeStyle=none;curved=1;rounded=0;orthogonalLoop=1;jettySize=auto;html=1;exitX=1;exitY=0.75;exitDx=0;exitDy=0;entryX=0;entryY=0.25;entryDx=0;entryDy=0;fontSize=12;startSize=8;endSize=8;" edge="1" parent="1" source="64A-an-FrHLoS8Hmhy-h-93" target="64A-an-FrHLoS8Hmhy-h-165">
          <mxGeometry relative="1" as="geometry" />
        </mxCell>
        <mxCell id="64A-an-FrHLoS8Hmhy-h-93" value="&lt;div&gt;Route&lt;/div&gt;&lt;div&gt;react-router&lt;/div&gt;/register" style="rounded=0;whiteSpace=wrap;html=1;" vertex="1" parent="1">
          <mxGeometry x="667" y="4" width="120" height="60" as="geometry" />
        </mxCell>
        <mxCell id="64A-an-FrHLoS8Hmhy-h-116" value="Footer" style="rounded=0;whiteSpace=wrap;html=1;" vertex="1" parent="1">
          <mxGeometry x="-47" y="133" width="120" height="60" as="geometry" />
        </mxCell>
        <mxCell id="64A-an-FrHLoS8Hmhy-h-117" value="&lt;div&gt;Outlet&lt;/div&gt;&lt;div&gt;react-router&lt;br&gt;&lt;/div&gt;" style="rounded=0;whiteSpace=wrap;html=1;" vertex="1" parent="1">
          <mxGeometry x="84" y="151" width="120" height="60" as="geometry" />
        </mxCell>
        <mxCell id="64A-an-FrHLoS8Hmhy-h-151" style="edgeStyle=none;curved=1;rounded=0;orthogonalLoop=1;jettySize=auto;html=1;exitX=1;exitY=0.25;exitDx=0;exitDy=0;entryX=0;entryY=0.5;entryDx=0;entryDy=0;fontSize=12;startSize=8;endSize=8;" edge="1" parent="1" source="64A-an-FrHLoS8Hmhy-h-118" target="64A-an-FrHLoS8Hmhy-h-135">
          <mxGeometry relative="1" as="geometry" />
        </mxCell>
        <mxCell id="64A-an-FrHLoS8Hmhy-h-152" style="edgeStyle=none;curved=1;rounded=0;orthogonalLoop=1;jettySize=auto;html=1;exitX=1;exitY=0.5;exitDx=0;exitDy=0;entryX=0;entryY=0.5;entryDx=0;entryDy=0;fontSize=12;startSize=8;endSize=8;" edge="1" parent="1" source="64A-an-FrHLoS8Hmhy-h-118" target="64A-an-FrHLoS8Hmhy-h-146">
          <mxGeometry relative="1" as="geometry" />
        </mxCell>
        <mxCell id="64A-an-FrHLoS8Hmhy-h-153" style="edgeStyle=none;curved=1;rounded=0;orthogonalLoop=1;jettySize=auto;html=1;exitX=1;exitY=0.75;exitDx=0;exitDy=0;entryX=0;entryY=0.5;entryDx=0;entryDy=0;fontSize=12;startSize=8;endSize=8;" edge="1" parent="1" source="64A-an-FrHLoS8Hmhy-h-118" target="64A-an-FrHLoS8Hmhy-h-145">
          <mxGeometry relative="1" as="geometry" />
        </mxCell>
        <mxCell id="64A-an-FrHLoS8Hmhy-h-154" style="edgeStyle=none;curved=1;rounded=0;orthogonalLoop=1;jettySize=auto;html=1;exitX=1;exitY=1;exitDx=0;exitDy=0;entryX=0;entryY=0.25;entryDx=0;entryDy=0;fontSize=12;startSize=8;endSize=8;" edge="1" parent="1" source="64A-an-FrHLoS8Hmhy-h-118" target="64A-an-FrHLoS8Hmhy-h-144">
          <mxGeometry relative="1" as="geometry" />
        </mxCell>
        <mxCell id="64A-an-FrHLoS8Hmhy-h-155" style="edgeStyle=none;curved=1;rounded=0;orthogonalLoop=1;jettySize=auto;html=1;exitX=0.75;exitY=1;exitDx=0;exitDy=0;entryX=0.25;entryY=0;entryDx=0;entryDy=0;fontSize=12;startSize=8;endSize=8;" edge="1" parent="1" source="64A-an-FrHLoS8Hmhy-h-118" target="64A-an-FrHLoS8Hmhy-h-143">
          <mxGeometry relative="1" as="geometry" />
        </mxCell>
        <mxCell id="64A-an-FrHLoS8Hmhy-h-156" style="edgeStyle=none;curved=1;rounded=0;orthogonalLoop=1;jettySize=auto;html=1;exitX=0.5;exitY=1;exitDx=0;exitDy=0;entryX=0.75;entryY=0;entryDx=0;entryDy=0;fontSize=12;startSize=8;endSize=8;" edge="1" parent="1" source="64A-an-FrHLoS8Hmhy-h-118" target="64A-an-FrHLoS8Hmhy-h-142">
          <mxGeometry relative="1" as="geometry" />
        </mxCell>
        <mxCell id="64A-an-FrHLoS8Hmhy-h-157" style="edgeStyle=none;curved=1;rounded=0;orthogonalLoop=1;jettySize=auto;html=1;exitX=0.25;exitY=1;exitDx=0;exitDy=0;entryX=0.75;entryY=0;entryDx=0;entryDy=0;fontSize=12;startSize=8;endSize=8;" edge="1" parent="1" source="64A-an-FrHLoS8Hmhy-h-118" target="64A-an-FrHLoS8Hmhy-h-141">
          <mxGeometry relative="1" as="geometry" />
        </mxCell>
        <mxCell id="64A-an-FrHLoS8Hmhy-h-158" style="edgeStyle=none;curved=1;rounded=0;orthogonalLoop=1;jettySize=auto;html=1;exitX=0;exitY=1;exitDx=0;exitDy=0;entryX=1;entryY=0;entryDx=0;entryDy=0;fontSize=12;startSize=8;endSize=8;" edge="1" parent="1" source="64A-an-FrHLoS8Hmhy-h-118" target="64A-an-FrHLoS8Hmhy-h-140">
          <mxGeometry relative="1" as="geometry" />
        </mxCell>
        <mxCell id="64A-an-FrHLoS8Hmhy-h-118" value="Header" style="rounded=0;whiteSpace=wrap;html=1;" vertex="1" parent="1">
          <mxGeometry x="218" y="133" width="120" height="60" as="geometry" />
        </mxCell>
        <mxCell id="64A-an-FrHLoS8Hmhy-h-121" style="edgeStyle=none;curved=1;rounded=0;orthogonalLoop=1;jettySize=auto;html=1;exitX=0;exitY=1;exitDx=0;exitDy=0;entryX=0.5;entryY=0;entryDx=0;entryDy=0;fontSize=12;startSize=8;endSize=8;" edge="1" parent="1" source="64A-an-FrHLoS8Hmhy-h-119" target="64A-an-FrHLoS8Hmhy-h-116">
          <mxGeometry relative="1" as="geometry" />
        </mxCell>
        <mxCell id="64A-an-FrHLoS8Hmhy-h-122" style="edgeStyle=none;curved=1;rounded=0;orthogonalLoop=1;jettySize=auto;html=1;exitX=0.5;exitY=1;exitDx=0;exitDy=0;entryX=0.5;entryY=0;entryDx=0;entryDy=0;fontSize=12;startSize=8;endSize=8;" edge="1" parent="1" source="64A-an-FrHLoS8Hmhy-h-119" target="64A-an-FrHLoS8Hmhy-h-117">
          <mxGeometry relative="1" as="geometry" />
        </mxCell>
        <mxCell id="64A-an-FrHLoS8Hmhy-h-123" style="edgeStyle=none;curved=1;rounded=0;orthogonalLoop=1;jettySize=auto;html=1;exitX=1;exitY=1;exitDx=0;exitDy=0;entryX=0.25;entryY=0;entryDx=0;entryDy=0;fontSize=12;startSize=8;endSize=8;" edge="1" parent="1" source="64A-an-FrHLoS8Hmhy-h-119" target="64A-an-FrHLoS8Hmhy-h-118">
          <mxGeometry relative="1" as="geometry" />
        </mxCell>
        <mxCell id="64A-an-FrHLoS8Hmhy-h-119" value="Layout" style="rounded=0;whiteSpace=wrap;html=1;" vertex="1" parent="1">
          <mxGeometry x="55" y="32" width="120" height="60" as="geometry" />
        </mxCell>
        <mxCell id="64A-an-FrHLoS8Hmhy-h-135" value="&lt;div&gt;NavLink&lt;/div&gt;&lt;div&gt;react-router&lt;/div&gt;&lt;div&gt;/&lt;br&gt;&lt;/div&gt;" style="rounded=0;whiteSpace=wrap;html=1;" vertex="1" parent="1">
          <mxGeometry x="373" y="93" width="109" height="57" as="geometry" />
        </mxCell>
        <mxCell id="64A-an-FrHLoS8Hmhy-h-140" value="&lt;div&gt;NavLink&lt;/div&gt;&lt;div&gt;react-router&lt;/div&gt;&lt;div&gt;/login&lt;/div&gt;" style="rounded=0;whiteSpace=wrap;html=1;" vertex="1" parent="1">
          <mxGeometry x="103" y="233" width="109" height="57" as="geometry" />
        </mxCell>
        <mxCell id="64A-an-FrHLoS8Hmhy-h-141" value="&lt;div&gt;NavLink&lt;/div&gt;&lt;div&gt;react-router&lt;/div&gt;&lt;div&gt;/register&lt;/div&gt;" style="rounded=0;whiteSpace=wrap;html=1;" vertex="1" parent="1">
          <mxGeometry x="170" y="297" width="109" height="57" as="geometry" />
        </mxCell>
        <mxCell id="64A-an-FrHLoS8Hmhy-h-142" value="&lt;div&gt;NavLink&lt;/div&gt;&lt;div&gt;react-router&lt;/div&gt;&lt;div&gt;/contact&lt;/div&gt;" style="rounded=0;whiteSpace=wrap;html=1;" vertex="1" parent="1">
          <mxGeometry x="243.5" y="363" width="109" height="57" as="geometry" />
        </mxCell>
        <mxCell id="64A-an-FrHLoS8Hmhy-h-143" value="&lt;div&gt;NavLink&lt;/div&gt;&lt;div&gt;react-router&lt;/div&gt;&lt;div&gt;/resources&lt;/div&gt;" style="rounded=0;whiteSpace=wrap;html=1;" vertex="1" parent="1">
          <mxGeometry x="366" y="358" width="109" height="57" as="geometry" />
        </mxCell>
        <mxCell id="64A-an-FrHLoS8Hmhy-h-144" value="&lt;div&gt;NavLink&lt;/div&gt;&lt;div&gt;react-router&lt;/div&gt;&lt;div&gt;/recipes&lt;/div&gt;" style="rounded=0;whiteSpace=wrap;html=1;" vertex="1" parent="1">
          <mxGeometry x="424" y="294" width="109" height="57" as="geometry" />
        </mxCell>
        <mxCell id="64A-an-FrHLoS8Hmhy-h-145" value="&lt;div&gt;NavLink&lt;/div&gt;&lt;div&gt;react-router&lt;/div&gt;&lt;div&gt;/heatmap&lt;/div&gt;" style="rounded=0;whiteSpace=wrap;html=1;" vertex="1" parent="1">
          <mxGeometry x="417" y="223" width="109" height="57" as="geometry" />
        </mxCell>
        <mxCell id="64A-an-FrHLoS8Hmhy-h-146" value="&lt;div&gt;NavLink&lt;/div&gt;&lt;div&gt;react-router&lt;/div&gt;&lt;div&gt;/dashboard&lt;/div&gt;" style="rounded=0;whiteSpace=wrap;html=1;" vertex="1" parent="1">
          <mxGeometry x="391" y="158" width="109" height="57" as="geometry" />
        </mxCell>
        <mxCell id="64A-an-FrHLoS8Hmhy-h-159" value="&lt;div&gt;NavLink&lt;/div&gt;&lt;div&gt;react-router&lt;/div&gt;&lt;div&gt;/login&lt;/div&gt;" style="rounded=0;whiteSpace=wrap;html=1;" vertex="1" parent="1">
          <mxGeometry x="-669" y="185" width="109" height="57" as="geometry" />
        </mxCell>
        <mxCell id="64A-an-FrHLoS8Hmhy-h-160" value="&lt;div&gt;NavLink&lt;/div&gt;&lt;div&gt;react-router&lt;/div&gt;&lt;div&gt;/register&lt;/div&gt;" style="rounded=0;whiteSpace=wrap;html=1;" vertex="1" parent="1">
          <mxGeometry x="-813" y="183" width="109" height="57" as="geometry" />
        </mxCell>
        <mxCell id="64A-an-FrHLoS8Hmhy-h-177" style="edgeStyle=none;curved=1;rounded=0;orthogonalLoop=1;jettySize=auto;html=1;exitX=0.5;exitY=1;exitDx=0;exitDy=0;entryX=0.5;entryY=0;entryDx=0;entryDy=0;fontSize=12;startSize=8;endSize=8;" edge="1" parent="1" source="64A-an-FrHLoS8Hmhy-h-163" target="64A-an-FrHLoS8Hmhy-h-172">
          <mxGeometry relative="1" as="geometry" />
        </mxCell>
        <mxCell id="64A-an-FrHLoS8Hmhy-h-163" value="Fullname" style="rounded=0;whiteSpace=wrap;html=1;" vertex="1" parent="1">
          <mxGeometry x="547" y="95" width="120" height="60" as="geometry" />
        </mxCell>
        <mxCell id="64A-an-FrHLoS8Hmhy-h-178" style="edgeStyle=none;curved=1;rounded=0;orthogonalLoop=1;jettySize=auto;html=1;exitX=0.25;exitY=1;exitDx=0;exitDy=0;entryX=0.5;entryY=0;entryDx=0;entryDy=0;fontSize=12;startSize=8;endSize=8;" edge="1" parent="1" source="64A-an-FrHLoS8Hmhy-h-164" target="64A-an-FrHLoS8Hmhy-h-174">
          <mxGeometry relative="1" as="geometry" />
        </mxCell>
        <mxCell id="64A-an-FrHLoS8Hmhy-h-164" value="Username" style="rounded=0;whiteSpace=wrap;html=1;" vertex="1" parent="1">
          <mxGeometry x="699" y="129" width="120" height="60" as="geometry" />
        </mxCell>
        <mxCell id="64A-an-FrHLoS8Hmhy-h-183" style="edgeStyle=none;curved=1;rounded=0;orthogonalLoop=1;jettySize=auto;html=1;exitX=0.5;exitY=1;exitDx=0;exitDy=0;entryX=0.5;entryY=0;entryDx=0;entryDy=0;fontSize=12;startSize=8;endSize=8;" edge="1" parent="1" source="64A-an-FrHLoS8Hmhy-h-165" target="64A-an-FrHLoS8Hmhy-h-176">
          <mxGeometry relative="1" as="geometry" />
        </mxCell>
        <mxCell id="64A-an-FrHLoS8Hmhy-h-165" value="Password" style="rounded=0;whiteSpace=wrap;html=1;" vertex="1" parent="1">
          <mxGeometry x="1039" y="91" width="120" height="60" as="geometry" />
        </mxCell>
        <mxCell id="64A-an-FrHLoS8Hmhy-h-179" style="edgeStyle=none;curved=1;rounded=0;orthogonalLoop=1;jettySize=auto;html=1;exitX=0.25;exitY=1;exitDx=0;exitDy=0;entryX=0.5;entryY=0;entryDx=0;entryDy=0;fontSize=12;startSize=8;endSize=8;" edge="1" parent="1" source="64A-an-FrHLoS8Hmhy-h-166" target="64A-an-FrHLoS8Hmhy-h-175">
          <mxGeometry relative="1" as="geometry" />
        </mxCell>
        <mxCell id="64A-an-FrHLoS8Hmhy-h-180" style="edgeStyle=none;curved=1;rounded=0;orthogonalLoop=1;jettySize=auto;html=1;exitX=0.75;exitY=1;exitDx=0;exitDy=0;entryX=0.5;entryY=0;entryDx=0;entryDy=0;fontSize=12;startSize=8;endSize=8;" edge="1" parent="1" source="64A-an-FrHLoS8Hmhy-h-166" target="64A-an-FrHLoS8Hmhy-h-171">
          <mxGeometry relative="1" as="geometry" />
        </mxCell>
        <mxCell id="64A-an-FrHLoS8Hmhy-h-166" value="Submit" style="rounded=0;whiteSpace=wrap;html=1;" vertex="1" parent="1">
          <mxGeometry x="869" y="115" width="120" height="60" as="geometry" />
        </mxCell>
        <mxCell id="64A-an-FrHLoS8Hmhy-h-171" value="&lt;div&gt;NavLink&lt;/div&gt;&lt;div&gt;react-router&lt;/div&gt;&lt;div&gt;/&lt;/div&gt;" style="rounded=0;whiteSpace=wrap;html=1;" vertex="1" parent="1">
          <mxGeometry x="964" y="237" width="109" height="57" as="geometry" />
        </mxCell>
        <mxCell id="64A-an-FrHLoS8Hmhy-h-172" value="Input" style="rounded=0;whiteSpace=wrap;html=1;" vertex="1" parent="1">
          <mxGeometry x="544" y="189" width="120" height="60" as="geometry" />
        </mxCell>
        <mxCell id="64A-an-FrHLoS8Hmhy-h-174" value="Input" style="rounded=0;whiteSpace=wrap;html=1;" vertex="1" parent="1">
          <mxGeometry x="675" y="252" width="120" height="60" as="geometry" />
        </mxCell>
        <mxCell id="64A-an-FrHLoS8Hmhy-h-175" value="Input" style="rounded=0;whiteSpace=wrap;html=1;" vertex="1" parent="1">
          <mxGeometry x="819" y="244" width="120" height="60" as="geometry" />
        </mxCell>
        <mxCell id="64A-an-FrHLoS8Hmhy-h-176" value="Input" style="rounded=0;whiteSpace=wrap;html=1;" vertex="1" parent="1">
          <mxGeometry x="1120" y="213" width="120" height="60" as="geometry" />
        </mxCell>
      </root>
    </mxGraphModel>
  </diagram>
</mxfile>
